PathFileType	4	(X/Y/Z)	PS_ngait_og_ss3.trc	
DataRate	CameraRate	NumFrames	NumMarkers	Units	OrigDataRate	OrigDataStartFrame	OrigNumFrames	
120.00	120.00	4	39	mm	120.00	513	130	
Frame#	Time	Sternum			Neck			RShoulder			LShoulder			Xiphoid			Thoracic			RAsis			LAsis			RPsis			LPsis			LThighSuperior			LThighInferior			LThighLateral			LShankSuperior			LShankInferior			LShankLateral			RThighSuperior			RThighInferior			RThighLateral			RShankSuperior			RShankInferior			RHeel			RToe			RMidfootMedial			RMidfootLateral			RHindfoot			RMidfootSuperior			RToeMedial			RToeLateral			LHeel			LToe			LMidfootMedial			LMidfootLateral			LHindfoot			LMidfootSuperior			LToeMedial			LToeLateral			Sacral			RShankLateral			
		X1	Y1	Z1	X2	Y2	Z2	X3	Y3	Z3	X4	Y4	Z4	X5	Y5	Z5	X6	Y6	Z6	X7	Y7	Z7	X8	Y8	Z8	X9	Y9	Z9	X10	Y10	Z10	X11	Y11	Z11	X12	Y12	Z12	X13	Y13	Z13	X14	Y14	Z14	X15	Y15	Z15	X16	Y16	Z16	X17	Y17	Z17	X18	Y18	Z18	X19	Y19	Z19	X20	Y20	Z20	X21	Y21	Z21	X22	Y22	Z22	X23	Y23	Z23	X24	Y24	Z24	X25	Y25	Z25	X26	Y26	Z26	X27	Y27	Z27	X28	Y28	Z28	X29	Y29	Z29	X30	Y30	Z30	X31	Y31	Z31	X32	Y32	Z32	X33	Y33	Z33	X34	Y34	Z34	X35	Y35	Z35	X36	Y36	Z36	X37	Y37	Z37	X38	Y38	Z38	X39	Y39	Z39	

1	0.000	220.48839	1417.70093	237.56485	59.16608	1520.77087	247.12224	110.34518	1506.83765	402.92416	88.69805	1510.43823	104.91073	247.98938	1256.56519	247.52921	-29.76051	1305.77881	248.49739	147.02312	999.75775	385.04681	169.82727	985.44080	109.30542	-36.31124	1020.77155	290.36264	-31.94698	1013.98279	185.17436	142.18636	819.84637	53.87485	251.47725	617.71906	93.56811	283.48355	741.46069	135.37286	325.73761	394.52820	94.34116	358.94629	196.11963	133.81624	383.35202	303.86862	163.05960	54.71735	807.58893	422.68481	10.28500	571.92340	386.71854	135.14659	706.72443	358.54565	-57.85013	423.15967	385.37784	-146.02147	183.72421	338.62982	-263.82846	81.46532	274.52176	48.68731	39.18436	317.49811	-46.25774	32.89933	255.19319	-62.15751	27.31519	374.56784	-113.86487	31.82002	358.31812	-78.75697	96.82278	305.70926	-0.62455	31.20989	264.67053	-9.89896	29.20612	367.71658	317.90485	57.94205	199.13913	612.31354	133.89435	135.83997	532.70721	82.14122	202.05235	518.39545	73.13467	90.34628	468.86765	58.85508	106.27148	487.56290	135.86066	156.17738	571.63312	96.21227	192.15221	558.19043	97.30610	89.01377	-34.12911	1017.37714	237.76849	-48.23745	285.90771	307.81863 
2	0.008	229.59416	1416.97754	236.57771	67.98138	1519.85645	245.60625	119.07331	1506.37671	401.45331	97.67947	1509.16333	103.40464	257.72076	1256.62903	247.15150	-20.37632	1304.58606	247.44910	156.33017	998.79034	385.04745	181.12250	984.90009	108.76363	-26.35464	1019.73285	289.09573	-21.12306	1012.84747	183.59125	154.16669	819.36133	54.67833	261.01770	615.92596	95.37277	295.51978	739.51959	135.88905	333.27505	392.25049	96.98794	362.84348	193.60358	136.46066	388.94070	301.00494	166.02498	62.77349	807.22650	422.52463	17.26050	571.72260	386.72519	143.32555	705.81567	359.07214	-52.29776	423.49722	385.70428	-143.64644	185.44832	338.69345	-262.83398	84.63126	274.79984	49.27639	38.44804	317.26550	-45.76451	33.01908	255.33104	-62.16853	27.29673	374.55554	-113.20953	32.25445	358.23965	-77.74844	97.10073	305.96228	-0.25666	30.94898	264.57541	-9.23323	28.84272	367.64578	320.04678	58.13987	200.43819	616.34937	126.26846	141.00058	535.98602	75.90904	205.97830	520.97809	69.75230	92.91554	471.21838	56.15031	108.84055	491.85101	131.08777	160.72546	574.73407	88.64688	196.66641	560.96716	92.36094	93.63185	-23.73885	1016.29016	236.34351	-44.15477	286.49484	308.37198 
3	0.017	238.92519	1416.42102	235.50896	76.78109	1519.02966	243.98431	127.45347	1506.09692	399.80115	106.62169	1507.73059	101.81727	267.53192	1256.72266	246.80591	-10.86256	1303.49792	246.37994	165.57425	997.99884	384.98193	192.72697	984.38678	108.68334	-16.32112	1018.91150	287.52304	-10.17170	1011.74567	181.95293	166.08247	818.65283	55.62510	269.92560	613.86658	97.22136	306.91382	736.90833	136.68974	337.18979	387.76050	99.89480	367.65228	190.96922	138.81264	394.95728	298.34784	169.00659	71.16186	806.98956	422.00977	24.91107	571.57599	386.54004	151.77725	704.88983	359.51749	-46.14490	424.15323	385.51141	-141.08585	187.42210	338.79663	-261.45364	88.35178	274.96445	49.58657	38.05067	317.58765	-45.60284	33.46813	255.29460	-62.03103	27.16708	374.53513	-112.54995	32.82572	358.10474	-77.10449	97.44031	306.38715	0.11260	31.11519	264.76501	-9.06673	28.46897	367.80508	322.37814	58.66132	200.79402	620.92340	117.77197	146.59827	539.45111	69.78001	209.82709	524.52936	64.80078	96.25967	474.77759	52.15938	111.76330	496.73215	126.19630	164.43921	577.76685	80.91280	201.59657	564.90601	85.99709	98.50346	-13.24641	1015.32861	234.73798	-39.36969	287.69846	309.08716 
4	0.025	248.24809	1416.29346	234.43758	85.51288	1518.30359	242.09503	135.61630	1506.00122	398.18680	115.66235	1506.53906	100.05337	277.44388	1256.86353	246.33887	-1.22746	1302.51611	244.97270	175.22876	996.67133	384.49731	204.31383	984.39026	108.54175	-5.97342	1018.27319	285.88245	0.74449	1010.95569	180.25711	177.81114	817.90552	56.52712	278.30234	611.66144	98.96134	317.35849	734.25189	137.65491	344.37329	385.57266	101.82072	373.68338	188.55438	140.36726	401.22433	296.06699	171.32094	79.93354	806.75958	421.60468	33.15281	571.49432	386.63953	160.76184	704.07013	359.69141	-39.24106	424.93369	385.74747	-137.85854	189.84067	338.84003	-259.79321	92.62472	275.42975	50.20770	37.23071	317.67740	-44.90216	33.41184	255.64160	-61.96632	27.11561	374.46658	-111.96243	33.74398	357.94568	-76.05148	97.57307	306.69434	0.61043	30.70279	264.91849	-8.44619	28.05149	367.96927	325.11719	59.67966	200.54730	625.54321	108.19180	152.58852	539.85602	62.11185	214.08298	528.84363	58.90255	100.07167	478.67218	47.62791	115.03376	502.01031	120.92215	168.14056	579.73438	72.51041	206.20094	569.74408	78.64582	102.84723	-2.61446	1014.61444	233.06978	-34.66135	287.84073	309.27155 
